<?xml version="1.0" encoding="utf-8"?>
<!-- Generator: Adobe Illustrator 13.0.0, SVG Export Plug-In . SVG Version: 6.00 Build 14948)  -->
<!DOCTYPE svg PUBLIC "-//W3C//DTD SVG 1.1//EN" "http://www.w3.org/Graphics/SVG/1.1/DTD/svg11.dtd">
<svg version="1.1" id="Layer_1" xmlns="http://www.w3.org/2000/svg" xmlns:xlink="http://www.w3.org/1999/xlink" x="0px" y="0px"
	 width="184.938px" height="30.682px" viewBox="0 0 184.938 30.682" enable-background="new 0 0 184.938 30.682"
	 xml:space="preserve">
<g>
	<g>
		<polygon fill-rule="evenodd" clip-rule="evenodd" fill="#222121" points="181.838,7.306 181.121,7.306 181.121,9.692 
			180.644,9.692 180.644,7.306 180.168,7.306 180.168,7.068 182.075,7.068 181.838,7.306 		"/>
		<path fill-rule="evenodd" clip-rule="evenodd" fill="#222121" d="M184.46,9.692V8.021c0-0.238,0-0.238,0-0.477
			c0,0.239-0.238,0.239-0.238,0.477l-0.477,1.672h-0.478l-0.238-1.672c-0.239,0-0.239-0.238-0.239-0.477c0,0.239,0,0.477,0,0.477
			l-0.238,1.672h-0.477l0.477-2.624h0.478l0.478,1.429c0,0.239,0,0.479,0,0.479s0.238-0.24,0.238-0.479l0.477-1.429h0.478
			l0.238,2.624H184.46L184.46,9.692z"/>
		<polygon fill-rule="evenodd" clip-rule="evenodd" fill="#222121" points="37.519,7.068 49.685,7.068 49.685,10.408 43.005,10.408 
			43.005,13.032 48.73,13.032 48.73,16.37 43.005,16.37 43.005,19.232 49.685,19.232 49.685,22.572 37.519,22.572 37.519,7.068 		
			"/>
		<path fill-rule="evenodd" clip-rule="evenodd" fill="#222121" d="M61.134,15.177c1.909,0,3.34,0.954,3.34,2.386
			s-1.431,2.385-3.34,2.385c-1.908,0-3.101-0.953-3.101-2.385S59.226,15.177,61.134,15.177L61.134,15.177z M64.474,13.746
			c-1.67-1.429-2.863-1.907-5.01-1.907c-3.577,0-6.679,2.384-6.679,5.485c0,3.101,3.102,5.486,6.679,5.486
			c2.146,0,3.34-0.478,5.01-1.67v1.432h5.01V12.078h-5.01V13.746L64.474,13.746z"/>
		<path fill-rule="evenodd" clip-rule="evenodd" fill="#222121" d="M73.538,12.078h5.248v1.431c0.954-1.192,2.147-1.67,3.579-1.67
			c0.476,0,1.192,0,1.669,0v3.815c-0.716-0.239-0.954-0.239-1.669-0.239c-2.387,0-3.579,0.954-3.579,3.101v4.056h-5.248V12.078
			L73.538,12.078z"/>
		<polygon fill-rule="evenodd" clip-rule="evenodd" fill="#222121" points="88.805,22.572 88.805,15.177 86.657,15.177 
			86.657,12.078 88.805,12.078 88.805,7.068 94.053,7.068 94.053,12.078 97.153,12.078 97.153,15.177 94.053,15.177 94.053,22.572 
			88.805,22.572 		"/>
		<path fill-rule="evenodd" clip-rule="evenodd" fill="#222121" d="M100.494,7.068h5.009v6.202c1.192-0.954,2.624-1.432,4.532-1.432
			c2.624,0,4.533,1.193,5.248,2.861c0,0.477,0.238,0.715,0.238,2.385v5.487h-5.248v-5.964c0-0.954-0.953-1.908-2.386-1.908
			c-1.431,0-2.385,0.954-2.385,2.385v5.487h-5.009V7.068L100.494,7.068z"/>
		<polygon fill-rule="evenodd" clip-rule="evenodd" fill="#222121" points="119.816,7.068 125.303,7.068 125.303,19.232 
			131.504,19.232 131.504,22.572 119.816,22.572 119.816,7.068 		"/>
		<path fill-rule="evenodd" clip-rule="evenodd" fill="#222121" d="M134.604,12.078h5.248v10.495h-5.248V12.078L134.604,12.078z
			 M140.091,8.736c0,1.194-1.43,2.148-2.861,2.148c-1.67,0-2.863-0.955-2.863-2.148c0-1.193,1.193-2.146,2.863-2.146
			S140.091,7.543,140.091,8.736L140.091,8.736z"/>
		<path fill-rule="evenodd" clip-rule="evenodd" fill="#222121" d="M143.669,12.078h5.248v1.193
			c1.193-0.954,2.625-1.432,4.533-1.432c2.385,0,4.532,1.193,5.01,2.861c0.238,0.477,0.238,0.715,0.238,2.385v5.487h-5.009v-5.964
			c0-0.954-0.955-1.908-2.387-1.908c-1.431,0-2.386,0.954-2.386,2.385v5.487h-5.248V12.078L143.669,12.078z"/>
		<polygon fill-rule="evenodd" clip-rule="evenodd" fill="#222121" points="162.753,7.068 168.002,7.068 168.002,16.131 
			172.295,12.316 178.975,12.316 172.772,17.324 179.69,22.572 172.772,22.572 168.002,18.277 168.002,22.572 162.753,22.572 
			162.753,7.068 		"/>
	</g>
	<g>
		<g id="XMLID_1_">
			<g>
				<path fill="#222121" d="M30.86,4.383c0,2.256-2.455,5.603-4.45,7.944c-0.003-0.022-0.009-0.048-0.012-0.071
					c0-0.088-0.085-0.258-0.085-0.345c0-0.17,0-0.255-0.088-0.343c0-0.17,0-0.255-0.085-0.428c0-0.085,0-0.085,0-0.172
					c3.256-3.941,4.114-6.6,3.429-7.37c-0.654-0.818-2.947-0.388-6.064,1.144c-0.006-0.008-0.015-0.02-0.02-0.028
					c-0.15,0.074-0.235,0.147-0.365,0.224c-0.021,0.009-0.043,0.02-0.065,0.031c-0.073,0-0.085,0-0.082,0.06
					C22.97,5.037,22.97,5.045,22.97,5.057c-0.173,0-0.258,0.085-0.428,0.17l-0.088,0.085c-0.011,0.005-0.02,0.011-0.028,0.017
					c-0.093,0.045-0.189,0.093-0.282,0.141h-0.003c-0.034,0.009-0.071,0.014-0.113,0.014c0,0.02-0.006,0.037-0.015,0.048
					L22.01,5.535c-0.022,0.011-0.045,0.022-0.067,0.034c-0.088,0.042-0.173,0.088-0.258,0.142c-0.006,0.003-0.012,0.006-0.018,0.011
					C20.801,6.2,19.869,6.75,18.941,7.37c-0.17-0.258-0.343-0.6-0.601-0.858C23.74,2.999,28.712,0.943,30.34,2.914
					C30.702,3.31,30.86,3.811,30.86,4.383z"/>
				<path fill="#222121" d="M26.398,12.256c0.003,0.022,0.009,0.048,0.012,0.071c-0.003,0.005-0.009,0.008-0.012,0.014V12.256z"/>
				<path fill="#F26722" d="M26.313,11.911c0,0.087,0.085,0.257,0.085,0.345v0.085c0.003-0.006,0.009-0.009,0.012-0.014
					c0.164,1.005,0.246,2.007,0.246,3.012c0,8.485-5.057,15.342-11.229,15.342c-1.37,0-2.701-0.343-3.933-0.963
					c-1.231-0.622-2.367-1.52-3.353-2.636c-0.173-0.342-0.43-0.6-0.6-0.857c-0.644-0.858-1.201-1.82-1.662-2.871
					c-0.459-1.05-0.824-2.186-1.082-3.386c0.601-0.686,1.286-1.455,1.971-2.229c0.773,5.999,4.371,10.629,8.658,10.629
					c4.887,0,8.827-5.83,8.827-13.03c0-3.683-1.112-7.112-2.828-9.428c0.082-0.079,0.161-0.142,0.24-0.19
					c0.006-0.005,0.012-0.008,0.018-0.011c0.088-0.048,0.173-0.096,0.258-0.142c0,0,0.045,0,0.067-0.034l0.003-0.003
					c0.043-0.02,0.085-0.04,0.128-0.063h0.003c0.096-0.025,0.169-0.082,0.282-0.141c0.182-0.091,0.363-0.182,0.544-0.272
					c0-0.011,0-0.02,0.003-0.028c0.017-0.06,0.082-0.06,0.082-0.06c0.022-0.011,0.045-0.022,0.065-0.031
					c0.13-0.068,0.258-0.133,0.385-0.195c1.274,1.792,2.211,4.009,2.636,6.398c0.085,0.173,0.085,0.258,0.085,0.428
					C26.313,11.656,26.313,11.741,26.313,11.911z"/>
				<path fill="#222121" d="M23.485,4.714c0.005,0.009,0.014,0.02,0.02,0.028C23.378,4.805,23.25,4.87,23.12,4.938
					C23.25,4.861,23.335,4.788,23.485,4.714z"/>
				<path fill="#222121" d="M23.055,4.969c0,0-0.065,0-0.082,0.06C22.97,4.969,22.981,4.969,23.055,4.969z"/>
				<path fill="#222121" d="M22.97,5.057c-0.181,0.09-0.362,0.181-0.544,0.272c0.009-0.006,0.018-0.012,0.028-0.017l0.088-0.085
					C22.712,5.142,22.797,5.057,22.97,5.057z"/>
				<path fill="#222121" d="M22.141,5.47c-0.043,0.023-0.085,0.042-0.128,0.063c0.009-0.011,0.015-0.028,0.015-0.048
					C22.069,5.484,22.106,5.479,22.141,5.47z"/>
				<path fill="#222121" d="M21.942,5.569c-0.085,0.045-0.17,0.094-0.258,0.142C21.77,5.657,21.854,5.611,21.942,5.569z"/>
				<path fill="#F26722" d="M21.942,2.914c-0.686,0.342-1.373,0.77-2.144,1.2c-1.285-1.115-2.743-1.716-4.371-1.716
					c-4.629,0-8.485,5.399-8.743,12.086c-0.857,0.855-1.628,1.713-2.397,2.486c0-0.515,0-1.03,0-1.631C4.287,6.942,9.256,0,15.428,0
					C17.913,0,20.142,1.113,21.942,2.914z"/>
				<path fill="#222121" d="M15.255,7.712c0.942,0,1.716,0.773,1.716,1.715c0,0.943-0.773,1.713-1.716,1.713
					c-0.343,0-0.686-0.085-1.028-0.342c-0.515,0.427-1.112,0.943-1.628,1.37c-2.143,1.801-4.113,3.687-5.829,5.572
					c-0.685,0.773-1.37,1.543-1.971,2.229c-2.228,2.658-3.598,5.057-3.686,6.515c-0.085,0.427,0,0.77,0.172,0.942
					c0.188,0.249,0.566,0.396,1.155,0.396c1.031,0,2.701-0.45,5.103-1.597c0.17,0.258,0.427,0.516,0.6,0.857
					c-2.743,1.37-6.257,2.656-7.63,1.028C0.085,27.684,0,27.083,0,26.398c0.343-3.259,5.057-9.258,11.914-15
					c0.601-0.515,1.112-0.943,1.713-1.458c-0.085-0.17-0.085-0.343-0.085-0.513C13.542,8.485,14.312,7.712,15.255,7.712z"/>
			</g>
			<g>
			</g>
		</g>
	</g>
</g>
</svg>
